<?xml version="1.0" encoding="utf-8"?>
<!-- Generator: Adobe Illustrator 16.0.0, SVG Export Plug-In . SVG Version: 6.00 Build 0)  -->
<!DOCTYPE svg PUBLIC "-//W3C//DTD SVG 1.1//EN" "http://www.w3.org/Graphics/SVG/1.1/DTD/svg11.dtd">
<svg version="1.1" xmlns="http://www.w3.org/2000/svg" xmlns:xlink="http://www.w3.org/1999/xlink" x="0px" y="0px" width="60px"
	 height="60px" viewBox="0 0 60 60" enable-background="new 0 0 60 60" xml:space="preserve">
<g id="Layer_1">
</g>
<g id="txt">
	<linearGradient id="SVGID_2_" gradientUnits="userSpaceOnUse" x1="30" y1="58.4287" x2="30" y2="6.3554">
		<stop  offset="0" style="stop-color:#477256"/>
		<stop  offset="1" style="stop-color:#135D6B"/>
	</linearGradient>
	<rect y="0.001" fill="url(#SVGID_2_)" width="60" height="60"/>
	<g>
		<path fill="#FFFFFF" d="M47.678,49.464c0,1.09-0.877,1.974-1.959,1.974H14.283c-1.084,0-1.961-0.884-1.961-1.974v-27.47
			c0-1.09,0.877-1.974,1.961-1.974h31.436c1.082,0,1.959,0.884,1.959,1.974V49.464z"/>
	</g>
	<path fill="#98C020" d="M29.011,7.009c0.309,0,0.575-0.107,0.8-0.324c0.199-0.191,0.304-0.392,0.313-0.6
		c0.009-0.141-0.046-0.281-0.163-0.418c-0.116-0.138-0.263-0.206-0.437-0.206c-0.3,0-0.573,0.1-0.819,0.3
		c-0.244,0.199-0.372,0.407-0.38,0.624C28.308,6.801,28.536,7.009,29.011,7.009z"/>
	<path fill="#FFFFFF" d="M37.515,11.229l-0.14-0.185c-0.095,0.108-0.214,0.225-0.361,0.348c-0.179,0.147-0.302,0.222-0.37,0.222
		c-0.094,0-0.154-0.02-0.178-0.06c-0.024-0.039-0.035-0.11-0.029-0.214c0-0.039,0.03-0.191,0.092-0.455
		c0.062-0.263,0.095-0.464,0.101-0.602c0.004-0.202-0.033-0.358-0.111-0.466C36.414,9.685,36.241,9.628,36,9.646
		c-0.281,0.025-0.574,0.136-0.88,0.333c-0.128,0.084-0.251,0.183-0.37,0.296c0.213-0.89,0.321-1.497,0.326-1.824
		c0.005-0.483-0.194-0.733-0.599-0.748c-0.458-0.016-0.794,0.243-1.006,0.776c0.089-0.04,0.174-0.06,0.251-0.06
		c0.064,0,0.131,0.04,0.2,0.118c0.103,0.124,0.146,0.313,0.125,0.57c-0.014,0.188-0.059,0.591-0.134,1.207
		c-0.016,0.154-0.032,0.296-0.046,0.428c-0.029,0.021-0.057,0.042-0.088,0.063c-0.374,0.249-0.716,0.374-1.022,0.374
		c-0.408,0-0.608-0.153-0.6-0.461c0.017-0.534,0.107-1.233,0.274-2.099h0.887c0.067,0,0.101-0.029,0.101-0.088l0.11-0.536
		c0.018-0.084-0.019-0.125-0.11-0.125h-0.837c0.199-0.949,0.337-1.607,0.411-1.974c0.017-0.066-0.033-0.1-0.148-0.1
		c-0.219,0-0.501,0.092-0.85,0.274c-0.375,0.2-0.58,0.4-0.612,0.6l-0.2,1.199h-0.513c-0.066,0-0.104,0.029-0.112,0.087l-0.112,0.537
		C30.43,8.579,30.468,8.62,30.559,8.62h0.514c-0.126,0.723-0.222,1.32-0.285,1.796c-0.124,0.124-0.266,0.254-0.428,0.39
		c-0.299,0.249-0.507,0.374-0.623,0.374c-0.268,0-0.396-0.179-0.389-0.537c0.125-0.782,0.242-1.427,0.35-1.935
		c0.033-0.3-0.015-0.544-0.144-0.731c-0.129-0.187-0.33-0.269-0.604-0.243c-0.176,0.017-0.441,0.184-0.8,0.5
		c-0.266,0.241-0.533,0.482-0.8,0.724l0.288,0.338c0.232-0.176,0.374-0.263,0.424-0.263c0.15,0,0.225,0.108,0.225,0.324
		c0,0.042-0.081,0.351-0.243,0.924c-0.041,0.146-0.077,0.282-0.108,0.409c-0.375,0.26-0.856,0.531-1.446,0.815
		c0.301-0.991,0.466-1.915,0.499-2.772c0.026-0.69-0.282-1.045-0.923-1.062c-0.774-0.024-1.282,0.408-1.523,1.299
		c0.135-0.058,0.274-0.087,0.418-0.087c0.118,0,0.215,0.047,0.292,0.143c0.075,0.097,0.109,0.207,0.102,0.331
		c-0.009,0.325-0.175,0.673-0.497,1.043c-0.323,0.371-0.61,0.557-0.862,0.557c-0.176,0-0.261-0.15-0.252-0.45
		c0.009-0.158,0.063-0.479,0.162-0.962c0.091-0.457,0.137-0.766,0.137-0.924c0-0.274-0.07-0.497-0.211-0.668
		c-0.142-0.171-0.347-0.244-0.612-0.219c-0.184,0.017-0.454,0.184-0.812,0.5c-0.267,0.241-0.532,0.482-0.8,0.724l0.287,0.338
		c0.233-0.176,0.376-0.263,0.425-0.263c0.158,0,0.233,0.108,0.225,0.324c0,0.018-0.074,0.279-0.225,0.787
		c-0.149,0.508-0.228,0.887-0.236,1.137c-0.017,0.342,0.046,0.604,0.188,0.786c0.174,0.225,0.467,0.32,0.876,0.287
		c0.485-0.033,0.97-0.212,1.455-0.537c0.201-0.133,0.393-0.287,0.576-0.462c-0.066,0.333-0.146,0.616-0.236,0.85
		c-0.9,0.408-1.549,0.758-1.948,1.049c-0.566,0.407-0.87,0.845-0.911,1.311c-0.076,0.808,0.332,1.212,1.223,1.212
		c0.6,0,1.179-0.366,1.736-1.1c0.475-0.623,0.887-1.456,1.236-2.497c0.605-0.3,1.116-0.594,1.535-0.882
		c-0.014,0.097-0.022,0.183-0.024,0.258c-0.009,0.267,0.057,0.482,0.193,0.649c0.138,0.167,0.335,0.25,0.594,0.25
		c0.557,0,1.116-0.242,1.674-0.725c0.162-0.143,0.31-0.292,0.444-0.448c-0.007,0.107-0.01,0.199-0.009,0.273
		c0.009,0.6,0.358,0.899,1.05,0.899c0.565,0,1.174-0.242,1.823-0.725c0.089-0.065,0.17-0.13,0.248-0.194c0,0.003,0,0.007,0,0.01
		c-0.01,0.237,0.045,0.425,0.162,0.563c0.148,0.167,0.389,0.246,0.725,0.237c-0.044-0.104-0.062-0.297-0.051-0.577
		c0.009-0.32,0.121-0.624,0.334-0.909c0.193-0.262,0.373-0.392,0.537-0.392c0.108,0,0.158,0.091,0.148,0.273
		c-0.006,0.118-0.034,0.289-0.086,0.514c-0.051,0.224-0.079,0.417-0.085,0.58c-0.005,0.158,0.034,0.286,0.115,0.384
		c0.081,0.1,0.197,0.148,0.351,0.148c0.33,0,0.66-0.143,0.991-0.429C37.188,11.727,37.377,11.489,37.515,11.229z M23.642,14.04
		c-0.134,0-0.195-0.059-0.187-0.175c0.016-0.217,0.39-0.504,1.122-0.862C24.195,13.694,23.884,14.04,23.642,14.04z"/>
	<g>
		<circle fill="#FFC500" cx="30.523" cy="38.929" r="6.778"/>
		<g>
			<path fill="none" stroke="#293F54" stroke-width="0.5669" stroke-miterlimit="10" d="M45.875,48.729c0,0.551-0.447,1-1,1H15.313
				c-0.551,0-1-0.449-1-1v-26c0-0.553,0.449-1,1-1h29.563c0.553,0,1,0.447,1,1V48.729z"/>
			
				<line fill="none" stroke="#293F54" stroke-width="0.5669" stroke-miterlimit="10" x1="14.125" y1="28.667" x2="45.813" y2="28.667"/>
			<circle fill="#00B1CC" cx="16.875" cy="25.292" r="0.813"/>
			<circle fill="#00B1CC" cx="20.875" cy="25.292" r="0.813"/>
			<circle fill="#00B1CC" cx="24.875" cy="25.292" r="0.813"/>
			<circle fill="#293F54" cx="30.25" cy="25.292" r="0.5"/>
			<circle fill="#293F54" cx="32.775" cy="25.292" r="0.5"/>
			<circle fill="#293F54" cx="35.301" cy="25.292" r="0.5"/>
			<circle fill="#293F54" cx="37.826" cy="25.292" r="0.5"/>
			<circle fill="#293F54" cx="40.352" cy="25.292" r="0.5"/>
			<circle fill="#293F54" cx="42.875" cy="25.292" r="0.5"/>
		</g>
		<path fill="#00B1CC" d="M14.313,38.495"/>
		<path fill="#FFFFFF" d="M33.79,32.626l0.272-1.281h0.975l0.604,1.281l-0.49,0.906v5.631h0.886v0.869l-0.236,0.375l0.486,0.943
			v4.611l-1.408,1.164c0,0-0.604-0.125-0.816-0.25s-1.315-0.393-1.186-0.666c0.129-0.271-0.012-0.92-0.012-0.92l-0.164-4.234
			l0.574-0.492l-0.363-0.656v-0.744l0.878,0.072l0.272-5.734L33.79,32.626z"/>
		<path fill="#FFFFFF" d="M28.617,41.104v-4.393c1.633-0.74,2.356-2.666,1.615-4.299c-0.258-0.566-0.672-1.047-1.194-1.385
			c-0.126-0.082-0.295-0.047-0.376,0.078c-0.029,0.045-0.045,0.098-0.045,0.148v2.332l-1.361,0.678l-1.361-0.678v-2.332
			c0-0.15-0.121-0.271-0.271-0.271c-0.053,0-0.104,0.016-0.148,0.045c-1.506,0.973-1.939,2.982-0.965,4.488
			c0.337,0.523,0.818,0.939,1.385,1.195v4.393c-1.162,0.523-1.908,1.682-1.905,2.957c-0.007,1.805,1.45,3.271,3.255,3.279
			c1.804,0.008,3.271-1.449,3.279-3.254C30.527,42.804,29.782,41.638,28.617,41.104z M28.053,45.417h-1.594l-0.793-1.355
			l0.793-1.354l1.594-0.002l0.793,1.355L28.053,45.417z"/>
		<g>
			<g>
				<g>
					<g>
						<path fill="#293F54" d="M28.617,41.104v-4.393c1.633-0.74,2.356-2.666,1.615-4.299c-0.258-0.566-0.672-1.047-1.194-1.385
							c-0.126-0.082-0.295-0.047-0.376,0.078c-0.029,0.045-0.045,0.098-0.045,0.148v2.332l-1.361,0.678l-1.361-0.678v-2.332
							c0-0.15-0.121-0.271-0.271-0.271c-0.053,0-0.104,0.016-0.148,0.045c-1.506,0.973-1.939,2.982-0.965,4.488
							c0.337,0.523,0.818,0.939,1.385,1.195v4.393c-1.162,0.523-1.908,1.682-1.905,2.957c-0.007,1.805,1.45,3.271,3.255,3.279
							c1.804,0.008,3.271-1.449,3.279-3.254C30.527,42.804,29.782,41.638,28.617,41.104z M29.792,45.065
							c-0.547,1.4-2.126,2.092-3.526,1.545s-2.092-2.125-1.545-3.525c0.276-0.709,0.836-1.27,1.545-1.547
							c0.105-0.041,0.174-0.141,0.174-0.254v-4.752c0-0.113-0.068-0.213-0.174-0.254c-1.393-0.535-2.088-2.1-1.552-3.492
							c0.14-0.365,0.357-0.693,0.637-0.967v1.936c0,0.104,0.058,0.197,0.15,0.244l1.634,0.813c0.076,0.039,0.166,0.039,0.242,0
							l1.634-0.813c0.093-0.047,0.151-0.141,0.151-0.244v-1.936c1.068,1.043,1.091,2.752,0.05,3.822
							c-0.272,0.279-0.603,0.496-0.966,0.637c-0.104,0.041-0.173,0.141-0.173,0.254v4.752c0,0.113,0.069,0.213,0.173,0.254
							C29.646,42.085,30.339,43.663,29.792,45.065z"/>
					</g>
				</g>
				<g>
					<g>
						<path fill="#293F54" d="M29.396,43.925l-0.952-1.627c-0.049-0.084-0.139-0.137-0.235-0.137h-1.906
							c-0.097,0-0.186,0.053-0.234,0.137l-0.953,1.627c-0.049,0.084-0.049,0.189,0,0.275l0.953,1.627
							c0.049,0.082,0.139,0.135,0.234,0.135h1.906c0.097,0,0.186-0.053,0.235-0.135l0.952-1.627
							C29.446,44.114,29.446,44.009,29.396,43.925z M28.053,45.415h-1.594l-0.793-1.354l0.793-1.354l1.594-0.002l0.794,1.354
							L28.053,45.415z"/>
					</g>
				</g>
				<g>
					<g>
						<path fill="#293F54" d="M27.256,36.466c-0.15,0-0.271,0.123-0.271,0.273v4.34c0,0.15,0.121,0.271,0.271,0.271
							s0.272-0.121,0.272-0.271v-4.34C27.528,36.589,27.406,36.466,27.256,36.466z"/>
					</g>
				</g>
			</g>
			<g>
				<g>
					<path fill="#293F54" d="M36.512,39.968v-0.816c0-0.15-0.121-0.273-0.271-0.273h-0.816v-5.379l0.244-0.488
						c0.025-0.051,0.035-0.109,0.025-0.166l-0.272-1.635c-0.022-0.131-0.136-0.227-0.271-0.227h-1.088
						c-0.134,0-0.246,0.096-0.269,0.227l-0.272,1.635c-0.01,0.057-0.001,0.115,0.024,0.166l0.245,0.488v5.379h-0.818
						c-0.15,0-0.271,0.123-0.271,0.273v0.816c0.003,0.076,0.034,0.146,0.088,0.201c0.092,0.09,0.143,0.215,0.143,0.344
						c0,0.133-0.055,0.258-0.15,0.352c-0.052,0.051-0.08,0.119-0.08,0.191v4.357c0.001,1.051,0.854,1.904,1.905,1.904
						s1.904-0.854,1.905-1.904v-4.357c-0.002-0.076-0.034-0.146-0.088-0.201c-0.091-0.09-0.143-0.213-0.143-0.342
						c0-0.135,0.055-0.262,0.151-0.354C36.484,40.108,36.512,40.04,36.512,39.968z M34.293,31.528h0.627l0.221,1.318l-0.232,0.467
						c-0.02,0.037-0.029,0.078-0.029,0.119v5.445h-0.545v-5.445c0.001-0.041-0.008-0.082-0.027-0.119l-0.233-0.467L34.293,31.528z
						 M35.967,39.862c-0.304,0.379-0.304,0.918,0,1.297v4.254c0,0.752-0.608,1.359-1.36,1.359s-1.36-0.607-1.36-1.359v-4.252
						c0.305-0.379,0.305-0.918,0-1.297v-0.441h2.721V39.862z"/>
				</g>
			</g>
			<g>
				<g>
					<path fill="#293F54" d="M34.063,41.601c-0.15,0-0.272,0.121-0.272,0.271v3.541c0,0.15,0.122,0.271,0.272,0.271
						s0.271-0.121,0.271-0.271v-3.541C34.334,41.722,34.213,41.601,34.063,41.601z"/>
				</g>
			</g>
			<g>
				<g>
					<path fill="#293F54" d="M35.15,41.601c-0.149,0-0.271,0.121-0.271,0.271v3.541c0,0.15,0.122,0.271,0.271,0.271
						c0.151,0,0.273-0.121,0.273-0.271v-3.541C35.424,41.722,35.302,41.601,35.15,41.601z"/>
				</g>
			</g>
		</g>
	</g>
</g>
</svg>
